{
  "accessors": [
    {
      "bufferView": 2,
      "componentType": 5126,
      "count": 25498,
      "max": [
        1.4370859861373901,
        0.86351698637008667,
        3.1301200389862061
      ],
      "min": [
        -1.0975430011749268,
        -0.86436301469802856,
        -0.16034099459648132
      ],
      "type": "VEC3"
    },
    {
      "bufferView": 2,
      "byteOffset": 305976,
      "componentType": 5126,
      "count": 25498,
      "max": [
        0.99998390674591064,
        0.99999940395355225,
        0.99993026256561279
      ],
      "min": [
        -0.99998176097869873,
        -1,
        -0.99927163124084473
      ],
      "type": "VEC3"
    },
    {
      "bufferView": 3,
      "componentType": 5126,
      "count": 25498,
      "max": [
        0.99997591972351074,
        0.99992239475250244,
        0.99999701976776123,
        1
      ],
      "min": [
        -0.99986326694488525,
        -0.99817037582397461,
        -0.99997431039810181,
        -1
      ],
      "type": "VEC4"
    },
    {
      "bufferView": 1,
      "componentType": 5126,
      "count": 25498,
      "max": [
        0.95782798528671265,
        0.99972701072692871
      ],
      "min": [
        0.0002730000123847276,
        0.0002730000123847276
      ],
      "type": "VEC2"
    },
    {
      "bufferView": 0,
      "componentType": 5125,
      "count": 147504,
      "max": [
        25497
      ],
      "min": [
        0
      ],
      "type": "SCALAR"
    },
    {
      "bufferView": 2,
      "byteOffset": 611952,
      "componentType": 5126,
      "count": 65532,
      "max": [
        1.176118016242981,
        0.92969602346420288,
        2.0984070301055908
      ],
      "min": [
        -0.63204300403594971,
        -1.0136940479278564,
        -0.0251460000872612
      ],
      "type": "VEC3"
    },
    {
      "bufferView": 2,
      "byteOffset": 1398336,
      "componentType": 5126,
      "count": 65532,
      "max": [
        0.99965924024581909,
        0.99988317489624023,
        1
      ],
      "min": [
        -0.99991345405578613,
        -0.99987351894378662,
        -1
      ],
      "type": "VEC3"
    },
    {
      "bufferView": 3,
      "byteOffset": 407968,
      "componentType": 5126,
      "count": 65532,
      "max": [
        0.99997055530548096,
        0.98974889516830444,
        0.99889200925827026,
        1
      ],
      "min": [
        -0.99999779462814331,
        -0.98963743448257446,
        -0.99883705377578735,
        1
      ],
      "type": "VEC4"
    },
    {
      "bufferView": 1,
      "byteOffset": 203984,
      "componentType": 5126,
      "count": 65532,
      "max": [
        0.79316997528076172,
        0.98976200819015503
      ],
      "min": [
        0.0037410000804811716,
        0.0046870000660419464
      ],
      "type": "VEC2"
    },
    {
      "bufferView": 0,
      "byteOffset": 590016,
      "componentType": 5125,
      "count": 101259,
      "max": [
        65531
      ],
      "min": [
        0
      ],
      "type": "SCALAR"
    },
    {
      "bufferView": 2,
      "byteOffset": 2184720,
      "componentType": 5126,
      "count": 4768,
      "max": [
        0.74756497144699097,
        0.89273101091384888,
        3.1858010292053223
      ],
      "min": [
        -0.60636699199676514,
        0.03322099894285202,
        0.073103003203868866
      ],
      "type": "VEC3"
    },
    {
      "bufferView": 2,
      "byteOffset": 2241936,
      "componentType": 5126,
      "count": 4768,
      "max": [
        0.99955266714096069,
        0.99975794553756714,
        0.98174214363098145
      ],
      "min": [
        -0.99954956769943237,
        -0.9998059868812561,
        -0.99144750833511353
      ],
      "type": "VEC3"
    },
    {
      "bufferView": 3,
      "byteOffset": 1456480,
      "componentType": 5126,
      "count": 4768,
      "max": [
        0.99592351913452148,
        0.99963831901550293,
        0.99772757291793823,
        1
      ],
      "min": [
        -0.99900400638580322,
        -0.99896377325057983,
        -0.9960746169090271,
        1
      ],
      "type": "VEC4"
    },
    {
      "bufferView": 1,
      "byteOffset": 728240,
      "componentType": 5126,
      "count": 4768,
      "max": [
        0.78503900766372681,
        0.97161698341369629
      ],
      "min": [
        0.0037410000804811716,
        0.0046870000660419464
      ],
      "type": "VEC2"
    },
    {
      "bufferView": 0,
      "byteOffset": 995052,
      "componentType": 5125,
      "count": 8151,
      "max": [
        4767
      ],
      "min": [
        0
      ],
      "type": "SCALAR"
    },
    {
      "bufferView": 2,
      "byteOffset": 2299152,
      "componentType": 5126,
      "count": 65532,
      "max": [
        1.7947020530700684,
        1.3302390575408936,
        3.0392749309539795
      ],
      "min": [
        -1.3149280548095703,
        -1.4495739936828613,
        -0.16626100242137909
      ],
      "type": "VEC3"
    },
    {
      "bufferView": 2,
      "byteOffset": 3085536,
      "componentType": 5126,
      "count": 65532,
      "max": [
        1,
        0.99999880790710449,
        0.99996531009674072
      ],
      "min": [
        -1,
        -0.99999904632568359,
        -0.99999988079071045
      ],
      "type": "VEC3"
    },
    {
      "bufferView": 3,
      "byteOffset": 1532768,
      "componentType": 5126,
      "count": 65532,
      "max": [
        0.99992424249649048,
        0.99999481439590454,
        0.99996507167816162,
        1
      ],
      "min": [
        -0.99998962879180908,
        -0.99983799457550049,
        -0.99999850988388062,
        -1
      ],
      "type": "VEC4"
    },
    {
      "bufferView": 1,
      "byteOffset": 766384,
      "componentType": 5126,
      "count": 65532,
      "max": [
        0.79438400268554688,
        0.99513500928878784
      ],
      "min": [
        0.0037410000804811716,
        0.0046870000660419464
      ],
      "type": "VEC2"
    },
    {
      "bufferView": 0,
      "byteOffset": 1027656,
      "componentType": 5125,
      "count": 298215,
      "max": [
        65531
      ],
      "min": [
        0
      ],
      "type": "SCALAR"
    },
    {
      "bufferView": 2,
      "byteOffset": 3871920,
      "componentType": 5126,
      "count": 17772,
      "max": [
        1.1361639499664307,
        0.95754402875900269,
        1.5802149772644043
      ],
      "min": [
        -0.89113897085189819,
        0.72161197662353516,
        0.17229799926280975
      ],
      "type": "VEC3"
    },
    {
      "bufferView": 2,
      "byteOffset": 4085184,
      "componentType": 5126,
      "count": 17772,
      "max": [
        0.99776244163513184,
        0.99996614456176758,
        0.99840497970581055
      ],
      "min": [
        -0.99992096424102783,
        -0.99996268749237061,
        -0.99931156635284424
      ],
      "type": "VEC3"
    },
    {
      "bufferView": 3,
      "byteOffset": 2581280,
      "componentType": 5126,
      "count": 17772,
      "max": [
        0.99954593181610107,
        0.99971300363540649,
        0.9903331995010376,
        1
      ],
      "min": [
        -0.99375563859939575,
        -0.9999929666519165,
        -0.99985986948013306,
        1
      ],
      "type": "VEC4"
    },
    {
      "bufferView": 1,
      "byteOffset": 1290640,
      "componentType": 5126,
      "count": 17772,
      "max": [
        0.79417300224304199,
        0.99455398321151733
      ],
      "min": [
        0.016676999628543854,
        0.0046870000660419464
      ],
      "type": "VEC2"
    },
    {
      "bufferView": 0,
      "byteOffset": 2220516,
      "componentType": 5125,
      "count": 88665,
      "max": [
        17771
      ],
      "min": [
        0
      ],
      "type": "SCALAR"
    }
  ],
  "asset": {
    "extras": {
      "author": "riki (https://sketchfab.com/rikkilambo)",
      "license": "CC-BY-NC-ND-4.0 (http://creativecommons.org/licenses/by-nc-nd/4.0/)",
      "source": "https://sketchfab.com/3d-models/frame-daypack-camo-green-9464e1afb76141c590bb0f504f98e3e1",
      "title": "Frame Daypack (Camo Green)"
    },
    "generator": "Sketchfab-9.3.0",
    "version": "2.0"
  },
  "bufferViews": [
    {
      "buffer": 0,
      "byteLength": 2575176,
      "byteOffset": 0,
      "name": "floatBufferViews",
      "target": 34963
    },
    {
      "buffer": 0,
      "byteLength": 1432816,
      "byteOffset": 2575176,
      "byteStride": 8,
      "name": "floatBufferViews",
      "target": 34962
    },
    {
      "buffer": 0,
      "byteLength": 4298448,
      "byteOffset": 4007992,
      "byteStride": 12,
      "name": "floatBufferViews",
      "target": 34962
    },
    {
      "buffer": 0,
      "byteLength": 2865632,
      "byteOffset": 8306440,
      "byteStride": 16,
      "name": "floatBufferViews",
      "target": 34962
    }
  ],
  "buffers": [
    {
      "byteLength": 11172072,
      "uri": "scene.bin"
    }
  ],
  "images": [
    {
      "uri": "textures/pack_baseColor.png"
    },
    {
      "uri": "textures/pack_metallicRoughness.png"
    },
    {
      "uri": "textures/pack_normal.png"
    },
    {
      "uri": "textures/stipes_baseColor.png"
    }
  ],
  "materials": [
    {
      "doubleSided": true,
      "emissiveFactor": [
        0,
        0,
        0
      ],
      "name": "pack",
      "normalTexture": {
        "index": 2,
        "scale": 1,
        "texCoord": 0
      },
      "occlusionTexture": {
        "index": 1,
        "strength": 1,
        "texCoord": 0
      },
      "pbrMetallicRoughness": {
        "baseColorFactor": [
          1,
          1,
          1,
          1
        ],
        "baseColorTexture": {
          "index": 0,
          "texCoord": 0
        },
        "metallicFactor": 1,
        "metallicRoughnessTexture": {
          "index": 1,
          "texCoord": 0
        },
        "roughnessFactor": 1
      }
    },
    {
      "doubleSided": true,
      "emissiveFactor": [
        0,
        0,
        0
      ],
      "name": "stipes",
      "normalTexture": {
        "index": 2,
        "scale": 1,
        "texCoord": 0
      },
      "occlusionTexture": {
        "index": 1,
        "strength": 1,
        "texCoord": 0
      },
      "pbrMetallicRoughness": {
        "baseColorFactor": [
          1,
          1,
          1,
          1
        ],
        "baseColorTexture": {
          "index": 3,
          "texCoord": 0
        },
        "metallicFactor": 1,
        "metallicRoughnessTexture": {
          "index": 1,
          "texCoord": 0
        },
        "roughnessFactor": 1
      }
    }
  ],
  "meshes": [
    {
      "primitives": [
        {
          "attributes": {
            "NORMAL": 1,
            "POSITION": 0,
            "TANGENT": 2,
            "TEXCOORD_0": 3
          },
          "indices": 4,
          "material": 0,
          "mode": 4
        }
      ]
    },
    {
      "primitives": [
        {
          "attributes": {
            "NORMAL": 6,
            "POSITION": 5,
            "TANGENT": 7,
            "TEXCOORD_0": 8
          },
          "indices": 9,
          "material": 1,
          "mode": 4
        }
      ]
    },
    {
      "primitives": [
        {
          "attributes": {
            "NORMAL": 11,
            "POSITION": 10,
            "TANGENT": 12,
            "TEXCOORD_0": 13
          },
          "indices": 14,
          "material": 1,
          "mode": 4
        }
      ]
    },
    {
      "primitives": [
        {
          "attributes": {
            "NORMAL": 16,
            "POSITION": 15,
            "TANGENT": 17,
            "TEXCOORD_0": 18
          },
          "indices": 19,
          "material": 1,
          "mode": 4
        }
      ]
    },
    {
      "primitives": [
        {
          "attributes": {
            "NORMAL": 21,
            "POSITION": 20,
            "TANGENT": 22,
            "TEXCOORD_0": 23
          },
          "indices": 24,
          "material": 1,
          "mode": 4
        }
      ]
    }
  ],
  "nodes": [
    {
      "children": [
        1
      ],
      "name": "RootNode (gltf orientation matrix)",
      "rotation": [
        -0.70710678118654746,
        -0,
        -0,
        0.70710678118654757
      ]
    },
    {
      "children": [
        2
      ],
      "name": "RootNode (model correction matrix)"
    },
    {
      "children": [
        3,
        4,
        5,
        6,
        7
      ],
      "name": "green.obj.cleaner.materialmerger.gles"
    },
    {
      "mesh": 0,
      "name": ""
    },
    {
      "mesh": 1,
      "name": ""
    },
    {
      "mesh": 2,
      "name": ""
    },
    {
      "mesh": 3,
      "name": ""
    },
    {
      "mesh": 4,
      "name": ""
    }
  ],
  "samplers": [
    {
      "magFilter": 9729,
      "minFilter": 9987,
      "wrapS": 10497,
      "wrapT": 10497
    }
  ],
  "scene": 0,
  "scenes": [
    {
      "name": "OSG_Scene",
      "nodes": [
        0
      ]
    }
  ],
  "textures": [
    {
      "sampler": 0,
      "source": 0
    },
    {
      "sampler": 0,
      "source": 1
    },
    {
      "sampler": 0,
      "source": 2
    },
    {
      "sampler": 0,
      "source": 3
    }
  ]
}

